<svg xmlns="http://www.w3.org/2000/svg" width="32" height="32" id="email">
  <path d="M25.213 7.045a5.797 5.797 0 0 1 5.803 5.805 5.795 5.795 0 0 1-5.803 5.802 5.797 5.797 0 0 1-5.805-5.802 5.798 5.798 0 0 1 5.805-5.805zm0 .92a4.892 4.892 0 0 0-4.883 4.885 4.89 4.89 0 0 0 4.883 4.882 4.89 4.89 0 0 0 4.883-4.882 4.892 4.892 0 0 0-4.883-4.885zm0 1a3.877 3.877 0 0 1 3.883 3.885 3.875 3.875 0 0 1-3.883 3.882 3.875 3.875 0 0 1-3.883-3.882 3.877 3.877 0 0 1 3.883-3.885zm-23.879.033h18.275a6.765 6.765 0 0 0-.086 7.572l-4.267 3.096-.018.018c-.112.1-.155.105-.193.105-.038 0-.126-.016-.29-.135L1.028 9.658 1 9.641v-.319a.395.395 0 0 1 .334-.324Zm26.293 1.684a.5.5 0 0 0-.346.144l-3.103 2.99-1.033-.996c-.48-.474-1.186.256-.696.72l1.381 1.331a.5.5 0 0 0 .693 0l3.452-3.326a.5.5 0 0 0-.348-.863zM1 10.877l13.168 9.586c.266.194.56.328.883.326.323 0 .621-.153.851-.357l4.235-3.07a6.783 6.783 0 0 0 5.076 2.29A6.763 6.763 0 0 0 29 18.496v7.176c0 .137-.037.194-.086.24-.049.046-.131.088-.277.088H1.363c-.213 0-.317-.014-.363-.018Z" color="#000" font-family="sans-serif" font-weight="400" overflow="visible" style="line-height:normal;text-indent:0;text-align:start;text-decoration-line:none;text-decoration-style:solid;text-decoration-color:#000;text-transform:none;block-progression:tb;isolation:auto;mix-blend-mode:normal"></path>
</svg>
